Nanban (2011) - Tamil WEB Rip - 720p XviD MP3 - Team XDN

Two buddies Venkatramakrishnan and Sevalkodi Senthil set out in search of their long lost friend Panchavan Parivendan aka Pari. They have a nerd Srivatsan for company and through intermittent flashbacks we are told that Pari, a bright, yet free-spirited student, who through his charisma is able to convince his two friends to think for themselves, follow their heart and take challenges with a positive attitude chanting his mantra: all is well. Pari wants to change the education system and often lock horns with Professor Virumandi Santhanam the Principal whose says: "Life is a race - Run Run Run". He wins the heart of Virumandi's daughter Riya and the film is about his journey.

Format : AVI
Format/Info : Audio Video Interleave
File size : 1.41 GiB
Duration : 3h 7mn
Overall bit rate : 1 073 Kbps

Video
ID : 0
Format : MPEG-4 Visual
Format profile : Advanced Simple@L5
Format settings, BVOP : 2
Format settings, QPel : No
Format settings, GMC : No warppoints
Format settings, Matrix : Default (H.263)
Codec ID : XVID
Codec ID/Hint : XviD
Duration : 3h 7mn
Bit rate : 954 Kbps
Width : 1 280 pixels
Height : 544 pixels
Display aspect ratio : 2.35:1
Frame rate : 25.000 fps
Color space : YUV
Chroma subsampling : 4:2:0
Bit depth : 8 bits
Scan type : Progressive
Compression mode : Lossy
Bits/(Pixel*Frame) : 0.055
Stream size : 1.25 GiB (89%)
Writing library : XviD 1.2.1 (UTC 2008-12-04)

Audio
ID : 1
Format : MPEG Audio
Format version : Version 1
Format profile : Layer 3
Mode : Joint stereo
Mode extension : MS Stereo
Codec ID : 55
Codec ID/Hint : MP3
Duration : 3h 7mn
Bit rate mode : Constant
Bit rate : 112 Kbps
Channel(s) : 2 channels
Sampling rate : 44.1 KHz
Compression mode : Lossy
Stream size : 150 MiB (10%)
 
http://www.ultraimg.com/images/cZ54J.png 
http://www.ultraimg.com/images/0vxNZ.png 
http://www.ultraimg.com/images/lM9L2.png 
http://www.ultraimg.com/images/d8J4Z.png 
http://www.ultraimg.com/images/a85es.png 
http://www.ultraimg.com/images/HCtMw.png 
http://www.ultraimg.com/images/Cv4F.png 
http://www.ultraimg.com/images/i0sj.png
